<mxfile host="app.diagrams.net" agent="Mozilla/5.0 (X11; Ubuntu; Linux x86_64; rv:137.0) Gecko/20100101 Firefox/137.0" version="26.2.14">
  <diagram name="Página-1" id="gUWWJ3kXWap80xGPwS6_">
    <mxGraphModel dx="1622" dy="1940" grid="0" gridSize="10" guides="1" tooltips="1" connect="1" arrows="1" fold="1" page="0" pageScale="1" pageWidth="827" pageHeight="1169" math="0" shadow="0">
      <root>
        <mxCell id="0" />
        <mxCell id="1" parent="0" />
        <mxCell id="ErlOh9H-3Kemg0n-9M_u-3" value="" style="edgeStyle=none;curved=1;rounded=0;orthogonalLoop=1;jettySize=auto;html=1;fontSize=12;startSize=8;endSize=8;" edge="1" parent="1" source="ErlOh9H-3Kemg0n-9M_u-1" target="ErlOh9H-3Kemg0n-9M_u-2">
          <mxGeometry relative="1" as="geometry" />
        </mxCell>
        <mxCell id="ErlOh9H-3Kemg0n-9M_u-1" value="Inicio" style="ellipse;whiteSpace=wrap;html=1;" vertex="1" parent="1">
          <mxGeometry x="111" y="-184" width="120" height="80" as="geometry" />
        </mxCell>
        <mxCell id="ErlOh9H-3Kemg0n-9M_u-5" value="" style="edgeStyle=none;curved=1;rounded=0;orthogonalLoop=1;jettySize=auto;html=1;fontSize=12;startSize=8;endSize=8;" edge="1" parent="1" source="ErlOh9H-3Kemg0n-9M_u-2" target="ErlOh9H-3Kemg0n-9M_u-4">
          <mxGeometry relative="1" as="geometry" />
        </mxCell>
        <mxCell id="ErlOh9H-3Kemg0n-9M_u-2" value="ingrese año" style="shape=parallelogram;perimeter=parallelogramPerimeter;whiteSpace=wrap;html=1;fixedSize=1;" vertex="1" parent="1">
          <mxGeometry x="111" y="26" width="120" height="60" as="geometry" />
        </mxCell>
        <mxCell id="ErlOh9H-3Kemg0n-9M_u-7" value="" style="edgeStyle=none;curved=1;rounded=0;orthogonalLoop=1;jettySize=auto;html=1;fontSize=12;startSize=8;endSize=8;" edge="1" parent="1" source="ErlOh9H-3Kemg0n-9M_u-4" target="ErlOh9H-3Kemg0n-9M_u-6">
          <mxGeometry relative="1" as="geometry" />
        </mxCell>
        <mxCell id="ErlOh9H-3Kemg0n-9M_u-8" value="si" style="edgeLabel;html=1;align=center;verticalAlign=middle;resizable=0;points=[];fontSize=12;" vertex="1" connectable="0" parent="ErlOh9H-3Kemg0n-9M_u-7">
          <mxGeometry x="-0.1821" relative="1" as="geometry">
            <mxPoint as="offset" />
          </mxGeometry>
        </mxCell>
        <mxCell id="ErlOh9H-3Kemg0n-9M_u-10" value="" style="edgeStyle=none;curved=1;rounded=0;orthogonalLoop=1;jettySize=auto;html=1;fontSize=12;startSize=8;endSize=8;" edge="1" parent="1" source="ErlOh9H-3Kemg0n-9M_u-4" target="ErlOh9H-3Kemg0n-9M_u-9">
          <mxGeometry relative="1" as="geometry" />
        </mxCell>
        <mxCell id="ErlOh9H-3Kemg0n-9M_u-11" value="no." style="edgeLabel;html=1;align=center;verticalAlign=middle;resizable=0;points=[];fontSize=12;" vertex="1" connectable="0" parent="ErlOh9H-3Kemg0n-9M_u-10">
          <mxGeometry x="-0.2833" y="-1" relative="1" as="geometry">
            <mxPoint as="offset" />
          </mxGeometry>
        </mxCell>
        <mxCell id="ErlOh9H-3Kemg0n-9M_u-4" value="año / 4 =0 y año / 100 =! 0" style="rhombus;whiteSpace=wrap;html=1;" vertex="1" parent="1">
          <mxGeometry x="73.5" y="190" width="195" height="193" as="geometry" />
        </mxCell>
        <mxCell id="ErlOh9H-3Kemg0n-9M_u-6" value="imprima año bisiesto" style="shape=parallelogram;perimeter=parallelogramPerimeter;whiteSpace=wrap;html=1;fixedSize=1;" vertex="1" parent="1">
          <mxGeometry x="-246" y="256.5" width="162" height="60" as="geometry" />
        </mxCell>
        <mxCell id="ErlOh9H-3Kemg0n-9M_u-13" value="" style="edgeStyle=none;curved=1;rounded=0;orthogonalLoop=1;jettySize=auto;html=1;fontSize=12;startSize=8;endSize=8;" edge="1" parent="1" source="ErlOh9H-3Kemg0n-9M_u-9" target="ErlOh9H-3Kemg0n-9M_u-12">
          <mxGeometry relative="1" as="geometry" />
        </mxCell>
        <mxCell id="ErlOh9H-3Kemg0n-9M_u-14" value="si" style="edgeLabel;html=1;align=center;verticalAlign=middle;resizable=0;points=[];fontSize=12;" vertex="1" connectable="0" parent="ErlOh9H-3Kemg0n-9M_u-13">
          <mxGeometry x="0.2478" y="-2" relative="1" as="geometry">
            <mxPoint x="1" as="offset" />
          </mxGeometry>
        </mxCell>
        <mxCell id="ErlOh9H-3Kemg0n-9M_u-16" value="" style="edgeStyle=none;curved=1;rounded=0;orthogonalLoop=1;jettySize=auto;html=1;fontSize=12;startSize=8;endSize=8;" edge="1" parent="1" source="ErlOh9H-3Kemg0n-9M_u-9" target="ErlOh9H-3Kemg0n-9M_u-15">
          <mxGeometry relative="1" as="geometry" />
        </mxCell>
        <mxCell id="ErlOh9H-3Kemg0n-9M_u-17" value="no." style="edgeLabel;html=1;align=center;verticalAlign=middle;resizable=0;points=[];fontSize=12;" vertex="1" connectable="0" parent="ErlOh9H-3Kemg0n-9M_u-16">
          <mxGeometry x="0.0188" y="1" relative="1" as="geometry">
            <mxPoint as="offset" />
          </mxGeometry>
        </mxCell>
        <mxCell id="ErlOh9H-3Kemg0n-9M_u-9" value="año /400 =0" style="rhombus;whiteSpace=wrap;html=1;" vertex="1" parent="1">
          <mxGeometry x="73.5" y="503" width="195" height="193" as="geometry" />
        </mxCell>
        <mxCell id="ErlOh9H-3Kemg0n-9M_u-20" style="edgeStyle=none;curved=1;rounded=0;orthogonalLoop=1;jettySize=auto;html=1;fontSize=12;startSize=8;endSize=8;" edge="1" parent="1" source="ErlOh9H-3Kemg0n-9M_u-12" target="ErlOh9H-3Kemg0n-9M_u-18">
          <mxGeometry relative="1" as="geometry" />
        </mxCell>
        <mxCell id="ErlOh9H-3Kemg0n-9M_u-12" value="imprima año es bisiesto" style="shape=parallelogram;perimeter=parallelogramPerimeter;whiteSpace=wrap;html=1;fixedSize=1;" vertex="1" parent="1">
          <mxGeometry x="-269" y="569.5" width="185" height="60" as="geometry" />
        </mxCell>
        <mxCell id="ErlOh9H-3Kemg0n-9M_u-19" style="edgeStyle=none;curved=1;rounded=0;orthogonalLoop=1;jettySize=auto;html=1;entryX=1;entryY=0.5;entryDx=0;entryDy=0;fontSize=12;startSize=8;endSize=8;" edge="1" parent="1" source="ErlOh9H-3Kemg0n-9M_u-15" target="ErlOh9H-3Kemg0n-9M_u-18">
          <mxGeometry relative="1" as="geometry" />
        </mxCell>
        <mxCell id="ErlOh9H-3Kemg0n-9M_u-15" value="imprima año no es bisiesto" style="shape=parallelogram;perimeter=parallelogramPerimeter;whiteSpace=wrap;html=1;fixedSize=1;" vertex="1" parent="1">
          <mxGeometry x="38.5" y="890" width="265" height="60" as="geometry" />
        </mxCell>
        <mxCell id="ErlOh9H-3Kemg0n-9M_u-18" value="fin" style="ellipse;whiteSpace=wrap;html=1;" vertex="1" parent="1">
          <mxGeometry x="-230" y="883" width="120" height="80" as="geometry" />
        </mxCell>
        <mxCell id="ErlOh9H-3Kemg0n-9M_u-21" style="edgeStyle=none;curved=1;rounded=0;orthogonalLoop=1;jettySize=auto;html=1;entryX=0.324;entryY=0.122;entryDx=0;entryDy=0;entryPerimeter=0;fontSize=12;startSize=8;endSize=8;" edge="1" parent="1" source="ErlOh9H-3Kemg0n-9M_u-6" target="ErlOh9H-3Kemg0n-9M_u-18">
          <mxGeometry relative="1" as="geometry">
            <Array as="points">
              <mxPoint x="-462" y="636" />
            </Array>
          </mxGeometry>
        </mxCell>
      </root>
    </mxGraphModel>
  </diagram>
</mxfile>
